<svg xmlns="http://www.w3.org/2000/svg" xml:space="preserve" style="enable-background:new 0 0 500 500" viewBox="0 0 500 500"><path d="M1 2h4v4H1zM21 2h4v4h-4zM41 2h4v4h-4zM61 2h4v4h-4zM81 2h4v4h-4zM101 2h4v4h-4zM121 2h4v4h-4zM141 2h4v4h-4zM161 2h4v4h-4zM181 2h4v4h-4zM201 2h4v4h-4zM221 2h4v4h-4zM241 2h4v4h-4zM261 2h4v4h-4zM281 2h4v4h-4zM301 2h4v4h-4zM321 2h4v4h-4zM341 2h4v4h-4zM361 2h4v4h-4zM381 2h4v4h-4zM1 22h4v4H1zM21 22h4v4h-4zM41 22h4v4h-4zM61 22h4v4h-4zM81 22h4v4h-4zM101 22h4v4h-4zM121 22h4v4h-4zM141 22h4v4h-4zM161 22h4v4h-4zM181 22h4v4h-4zM201 22h4v4h-4zM221 22h4v4h-4zM241 22h4v4h-4zM261 22h4v4h-4zM281 22h4v4h-4zM301 22h4v4h-4zM321 22h4v4h-4zM341 22h4v4h-4zM361 22h4v4h-4zM381 22h4v4h-4zM1 42h4v4H1zM21 42h4v4h-4zM41 42h4v4h-4zM61 42h4v4h-4zM81 42h4v4h-4zM101 42h4v4h-4zM121 42h4v4h-4zM141 42h4v4h-4zM161 42h4v4h-4zM181 42h4v4h-4zM201 42h4v4h-4zM221 42h4v4h-4zM241 42h4v4h-4zM261 42h4v4h-4zM281 42h4v4h-4zM301 42h4v4h-4zM321 42h4v4h-4zM341 42h4v4h-4zM361 42h4v4h-4zM381 42h4v4h-4zM1 62h4v4H1zM21 62h4v4h-4zM41 62h4v4h-4zM61 62h4v4h-4zM81 62h4v4h-4zM101 62h4v4h-4zM121 62h4v4h-4zM141 62h4v4h-4zM161 62h4v4h-4zM181 62h4v4h-4zM201 62h4v4h-4zM221 62h4v4h-4zM241 62h4v4h-4zM261 62h4v4h-4zM281 62h4v4h-4zM301 62h4v4h-4zM321 62h4v4h-4zM341 62h4v4h-4zM361 62h4v4h-4zM381 62h4v4h-4zM1 82h4v4H1zM21 82h4v4h-4zM41 82h4v4h-4zM61 82h4v4h-4zM81 82h4v4h-4zM101 82h4v4h-4zM121 82h4v4h-4zM141 82h4v4h-4zM161 82h4v4h-4zM181 82h4v4h-4zM201 82h4v4h-4zM221 82h4v4h-4zM241 82h4v4h-4zM261 82h4v4h-4zM281 82h4v4h-4zM301 82h4v4h-4zM321 82h4v4h-4zM341 82h4v4h-4zM361 82h4v4h-4zM381 82h4v4h-4zM1 102h4v4H1zM21 102h4v4h-4zM41 102h4v4h-4zM61 102h4v4h-4zM81 102h4v4h-4zM101 102h4v4h-4zM121 102h4v4h-4zM141 102h4v4h-4zM161 102h4v4h-4zM181 102h4v4h-4zM201 102h4v4h-4zM221 102h4v4h-4zM241 102h4v4h-4zM261 102h4v4h-4zM281 102h4v4h-4zM301 102h4v4h-4zM321 102h4v4h-4zM341 102h4v4h-4zM361 102h4v4h-4zM381 102h4v4h-4zM1 122h4v4H1zM21 122h4v4h-4zM41 122h4v4h-4zM61 122h4v4h-4zM81 122h4v4h-4zM101 122h4v4h-4zM121 122h4v4h-4zM141 122h4v4h-4zM161 122h4v4h-4zM181 122h4v4h-4zM201 122h4v4h-4zM221 122h4v4h-4zM241 122h4v4h-4zM261 122h4v4h-4zM281 122h4v4h-4zM301 122h4v4h-4zM321 122h4v4h-4zM341 122h4v4h-4zM361 122h4v4h-4zM381 122h4v4h-4zM1 142h4v4H1zM21 142h4v4h-4zM41 142h4v4h-4zM61 142h4v4h-4zM81 142h4v4h-4zM101 142h4v4h-4zM121 142h4v4h-4zM141 142h4v4h-4zM161 142h4v4h-4zM181 142h4v4h-4zM201 142h4v4h-4zM221 142h4v4h-4zM241 142h4v4h-4zM261 142h4v4h-4zM281 142h4v4h-4zM301 142h4v4h-4zM321 142h4v4h-4zM341 142h4v4h-4zM361 142h4v4h-4zM381 142h4v4h-4zM1 162h4v4H1zM21 162h4v4h-4zM41 162h4v4h-4zM61 162h4v4h-4zM81 162h4v4h-4zM101 162h4v4h-4zM121 162h4v4h-4zM141 162h4v4h-4zM161 162h4v4h-4zM181 162h4v4h-4zM201 162h4v4h-4zM221 162h4v4h-4zM241 162h4v4h-4zM261 162h4v4h-4zM281 162h4v4h-4zM301 162h4v4h-4zM321 162h4v4h-4zM341 162h4v4h-4zM361 162h4v4h-4zM381 162h4v4h-4zM1 182h4v4H1zM21 182h4v4h-4zM41 182h4v4h-4zM61 182h4v4h-4zM81 182h4v4h-4zM101 182h4v4h-4zM121 182h4v4h-4zM141 182h4v4h-4zM161 182h4v4h-4zM181 182h4v4h-4zM201 182h4v4h-4zM221 182h4v4h-4zM241 182h4v4h-4zM261 182h4v4h-4zM281 182h4v4h-4zM301 182h4v4h-4zM321 182h4v4h-4zM341 182h4v4h-4zM361 182h4v4h-4zM381 182h4v4h-4zM1 202h4v4H1zM21 202h4v4h-4zM41 202h4v4h-4zM61 202h4v4h-4zM81 202h4v4h-4zM101 202h4v4h-4zM121 202h4v4h-4zM141 202h4v4h-4zM161 202h4v4h-4zM181 202h4v4h-4zM201 202h4v4h-4zM221 202h4v4h-4zM241 202h4v4h-4zM261 202h4v4h-4zM281 202h4v4h-4zM301 202h4v4h-4zM321 202h4v4h-4zM341 202h4v4h-4zM361 202h4v4h-4zM381 202h4v4h-4zM1 222h4v4H1zM21 222h4v4h-4zM41 222h4v4h-4zM61 222h4v4h-4zM81 222h4v4h-4zM101 222h4v4h-4zM121 222h4v4h-4zM141 222h4v4h-4zM161 222h4v4h-4zM181 222h4v4h-4zM201 222h4v4h-4zM221 222h4v4h-4zM241 222h4v4h-4zM261 222h4v4h-4zM281 222h4v4h-4zM301 222h4v4h-4zM321 222h4v4h-4zM341 222h4v4h-4zM361 222h4v4h-4zM381 222h4v4h-4zM1 242h4v4H1zM21 242h4v4h-4zM41 242h4v4h-4zM61 242h4v4h-4zM81 242h4v4h-4zM101 242h4v4h-4zM121 242h4v4h-4zM141 242h4v4h-4zM161 242h4v4h-4zM181 242h4v4h-4zM201 242h4v4h-4zM221 242h4v4h-4zM241 242h4v4h-4zM261 242h4v4h-4zM281 242h4v4h-4zM301 242h4v4h-4zM321 242h4v4h-4zM341 242h4v4h-4zM361 242h4v4h-4zM381 242h4v4h-4zM1 262h4v4H1zM21 262h4v4h-4zM41 262h4v4h-4zM61 262h4v4h-4zM81 262h4v4h-4zM101 262h4v4h-4zM121 262h4v4h-4zM141 262h4v4h-4zM161 262h4v4h-4zM181 262h4v4h-4zM201 262h4v4h-4zM221 262h4v4h-4zM241 262h4v4h-4zM261 262h4v4h-4zM281 262h4v4h-4zM301 262h4v4h-4zM321 262h4v4h-4zM341 262h4v4h-4zM361 262h4v4h-4zM381 262h4v4h-4zM1 282h4v4H1zM21 282h4v4h-4zM41 282h4v4h-4zM61 282h4v4h-4zM81 282h4v4h-4zM101 282h4v4h-4zM121 282h4v4h-4zM141 282h4v4h-4zM161 282h4v4h-4zM181 282h4v4h-4zM201 282h4v4h-4zM221 282h4v4h-4zM241 282h4v4h-4zM261 282h4v4h-4zM281 282h4v4h-4zM301 282h4v4h-4zM321 282h4v4h-4zM341 282h4v4h-4zM361 282h4v4h-4zM381 282h4v4h-4zM1 302h4v4H1zM21 302h4v4h-4zM41 302h4v4h-4zM61 302h4v4h-4zM81 302h4v4h-4zM101 302h4v4h-4zM121 302h4v4h-4zM141 302h4v4h-4zM161 302h4v4h-4zM181 302h4v4h-4zM201 302h4v4h-4zM221 302h4v4h-4zM241 302h4v4h-4zM261 302h4v4h-4zM281 302h4v4h-4zM301 302h4v4h-4zM321 302h4v4h-4zM341 302h4v4h-4zM361 302h4v4h-4zM381 302h4v4h-4zM1 322h4v4H1zM21 322h4v4h-4zM41 322h4v4h-4zM61 322h4v4h-4zM81 322h4v4h-4zM101 322h4v4h-4zM121 322h4v4h-4zM141 322h4v4h-4zM161 322h4v4h-4zM181 322h4v4h-4zM201 322h4v4h-4zM221 322h4v4h-4zM241 322h4v4h-4zM261 322h4v4h-4zM281 322h4v4h-4zM301 322h4v4h-4zM321 322h4v4h-4zM341 322h4v4h-4zM361 322h4v4h-4zM381 322h4v4h-4zM1 342h4v4H1zM21 342h4v4h-4zM41 342h4v4h-4zM61 342h4v4h-4zM81 342h4v4h-4zM101 342h4v4h-4zM121 342h4v4h-4zM141 342h4v4h-4zM161 342h4v4h-4zM181 342h4v4h-4zM201 342h4v4h-4zM221 342h4v4h-4zM241 342h4v4h-4zM261 342h4v4h-4zM281 342h4v4h-4zM301 342h4v4h-4zM321 342h4v4h-4zM341 342h4v4h-4zM361 342h4v4h-4zM381 342h4v4h-4zM1 362h4v4H1zM21 362h4v4h-4zM41 362h4v4h-4zM61 362h4v4h-4zM81 362h4v4h-4zM101 362h4v4h-4zM121 362h4v4h-4zM141 362h4v4h-4zM161 362h4v4h-4zM181 362h4v4h-4zM201 362h4v4h-4zM221 362h4v4h-4zM241 362h4v4h-4zM261 362h4v4h-4zM281 362h4v4h-4zM301 362h4v4h-4zM321 362h4v4h-4zM341 362h4v4h-4zM361 362h4v4h-4zM381 362h4v4h-4zM1 382h4v4H1zM21 382h4v4h-4zM41 382h4v4h-4zM61 382h4v4h-4zM81 382h4v4h-4zM101 382h4v4h-4zM121 382h4v4h-4zM141 382h4v4h-4zM161 382h4v4h-4zM181 382h4v4h-4zM201 382h4v4h-4zM221 382h4v4h-4zM241 382h4v4h-4zM261 382h4v4h-4zM281 382h4v4h-4zM301 382h4v4h-4zM321 382h4v4h-4zM341 382h4v4h-4zM361 382h4v4h-4zM381 382h4v4h-4zM401 2h4v4h-4zM421 2h4v4h-4zM441 2h4v4h-4zM401 22h4v4h-4zM421 22h4v4h-4zM441 22h4v4h-4zM401 42h4v4h-4zM421 42h4v4h-4zM441 42h4v4h-4zM401 62h4v4h-4zM421 62h4v4h-4zM441 62h4v4h-4zM401 82h4v4h-4zM421 82h4v4h-4zM441 82h4v4h-4zM401 102h4v4h-4zM421 102h4v4h-4zM441 102h4v4h-4zM401 122h4v4h-4zM421 122h4v4h-4zM441 122h4v4h-4zM401 142h4v4h-4zM421 142h4v4h-4zM441 142h4v4h-4zM401 162h4v4h-4zM421 162h4v4h-4zM441 162h4v4h-4zM401 182h4v4h-4zM421 182h4v4h-4zM441 182h4v4h-4zM401 202h4v4h-4zM421 202h4v4h-4zM441 202h4v4h-4zM401 222h4v4h-4zM421 222h4v4h-4zM441 222h4v4h-4zM401 242h4v4h-4zM421 242h4v4h-4zM441 242h4v4h-4zM401 262h4v4h-4zM421 262h4v4h-4zM441 262h4v4h-4zM401 282h4v4h-4zM421 282h4v4h-4zM441 282h4v4h-4zM401 302h4v4h-4zM421 302h4v4h-4zM441 302h4v4h-4zM401 322h4v4h-4zM421 322h4v4h-4zM441 322h4v4h-4zM401 342h4v4h-4zM421 342h4v4h-4zM441 342h4v4h-4zM401 362h4v4h-4zM421 362h4v4h-4zM441 362h4v4h-4zM401 382h4v4h-4zM421 382h4v4h-4zM441 382h4v4h-4zM461 2h4v4h-4zM461 22h4v4h-4zM461 42h4v4h-4zM461 62h4v4h-4zM461 82h4v4h-4zM461 102h4v4h-4zM461 122h4v4h-4zM461 142h4v4h-4zM461 162h4v4h-4zM461 182h4v4h-4zM461 202h4v4h-4zM461 222h4v4h-4zM461 242h4v4h-4zM461 262h4v4h-4zM461 282h4v4h-4zM461 302h4v4h-4zM461 322h4v4h-4zM461 342h4v4h-4zM461 362h4v4h-4zM461 382h4v4h-4zM481 2h4v4h-4zM481 22h4v4h-4zM481 42h4v4h-4zM481 62h4v4h-4zM481 82h4v4h-4zM481 102h4v4h-4zM481 122h4v4h-4zM481 142h4v4h-4zM481 162h4v4h-4zM481 182h4v4h-4zM481 202h4v4h-4zM481 222h4v4h-4zM481 242h4v4h-4zM481 262h4v4h-4zM481 282h4v4h-4zM481 302h4v4h-4zM481 322h4v4h-4zM481 342h4v4h-4zM481 362h4v4h-4zM481 382h4v4h-4zM1 402h4v4H1zM21 402h4v4h-4zM41 402h4v4h-4zM61 402h4v4h-4zM81 402h4v4h-4zM101 402h4v4h-4zM121 402h4v4h-4zM141 402h4v4h-4zM161 402h4v4h-4zM181 402h4v4h-4zM201 402h4v4h-4zM221 402h4v4h-4zM241 402h4v4h-4zM261 402h4v4h-4zM281 402h4v4h-4zM301 402h4v4h-4zM321 402h4v4h-4zM341 402h4v4h-4zM361 402h4v4h-4zM381 402h4v4h-4zM1 422h4v4H1zM21 422h4v4h-4zM41 422h4v4h-4zM61 422h4v4h-4zM81 422h4v4h-4zM101 422h4v4h-4zM121 422h4v4h-4zM141 422h4v4h-4zM161 422h4v4h-4zM181 422h4v4h-4zM201 422h4v4h-4zM221 422h4v4h-4zM241 422h4v4h-4zM261 422h4v4h-4zM281 422h4v4h-4zM301 422h4v4h-4zM321 422h4v4h-4zM341 422h4v4h-4zM361 422h4v4h-4zM381 422h4v4h-4zM1 442h4v4H1zM21 442h4v4h-4zM41 442h4v4h-4zM61 442h4v4h-4zM81 442h4v4h-4zM101 442h4v4h-4zM121 442h4v4h-4zM141 442h4v4h-4zM161 442h4v4h-4zM181 442h4v4h-4zM201 442h4v4h-4zM221 442h4v4h-4zM241 442h4v4h-4zM261 442h4v4h-4zM281 442h4v4h-4zM301 442h4v4h-4zM321 442h4v4h-4zM341 442h4v4h-4zM361 442h4v4h-4zM381 442h4v4h-4zM1 462h4v4H1zM21 462h4v4h-4zM41 462h4v4h-4zM61 462h4v4h-4zM81 462h4v4h-4zM101 462h4v4h-4zM121 462h4v4h-4zM141 462h4v4h-4zM161 462h4v4h-4zM181 462h4v4h-4zM201 462h4v4h-4zM221 462h4v4h-4zM241 462h4v4h-4zM261 462h4v4h-4zM281 462h4v4h-4zM301 462h4v4h-4zM321 462h4v4h-4zM341 462h4v4h-4zM361 462h4v4h-4zM381 462h4v4h-4zM1 482h4v4H1zM21 482h4v4h-4zM41 482h4v4h-4zM61 482h4v4h-4zM81 482h4v4h-4zM101 482h4v4h-4zM121 482h4v4h-4zM141 482h4v4h-4zM161 482h4v4h-4zM181 482h4v4h-4zM201 482h4v4h-4zM221 482h4v4h-4zM241 482h4v4h-4zM261 482h4v4h-4zM281 482h4v4h-4zM301 482h4v4h-4zM321 482h4v4h-4zM341 482h4v4h-4zM361 482h4v4h-4zM381 482h4v4h-4zM401 402h4v4h-4zM421 402h4v4h-4zM441 402h4v4h-4zM401 422h4v4h-4zM421 422h4v4h-4zM441 422h4v4h-4zM401 442h4v4h-4zM421 442h4v4h-4zM441 442h4v4h-4zM401 462h4v4h-4zM421 462h4v4h-4zM441 462h4v4h-4zM401 482h4v4h-4zM421 482h4v4h-4zM441 482h4v4h-4zM461 402h4v4h-4zM461 422h4v4h-4zM461 442h4v4h-4zM461 462h4v4h-4zM461 482h4v4h-4zM481 402h4v4h-4zM481 422h4v4h-4zM481 442h4v4h-4zM481 462h4v4h-4zM481 482h4v4h-4z"/></svg>