
<!-- Generator: Adobe Illustrator 26.3.1, SVG Export Plug-In . SVG Version: 6.00 Build 0)  -->
<svg version="1.1" xmlns="http://www.w3.org/2000/svg" xmlns:xlink="http://www.w3.org/1999/xlink" x="0px" y="0px"
	 viewBox="0 0 1964 973" style="enable-background:new 0 0 1964 973;" xml:space="preserve">
<style type="text/css">
	.st0{fill:#E0E0E0;}
	.st1{fill:#E5E5E5;}
	.st2{fill:#EAEAEA;}
	.st3{fill:#EFEFEF;}
</style>
<g id="Layer_5">
	<rect x="509" y="537" class="st0" width="1455" height="436"/>
</g>
<g id="Layer_4">
	<path class="st1" d="M1964,691c0,0-360-154-643-140c-307,16-442,380-758,422c-227,0-563,0-563,0V0h1964V691z"/>
</g>
<g id="Layer_3">
	<path class="st2" d="M1964,242.6C1926,248,1838,434,1723,449c-215,58-470-91-678-38c-323,60-459,351-648,371S0,683.9,0,683.9L0,0
		h1964C1964,0,1964,232,1964,242.6z"/>
</g>
<g id="Layer_2">
	<path class="st3" d="M1925.6,0c0,0-52.6,111-248.6,186c-181,34-225-98-521-69c-376,35-476,379-683,405C219,557,0,372,0,372L0,0
		H1925.6z"/>
</g>
</svg>
