
<!-- Generator: Adobe Illustrator 26.3.1, SVG Export Plug-In . SVG Version: 6.00 Build 0)  -->
<svg version="1.1" xmlns="http://www.w3.org/2000/svg" xmlns:xlink="http://www.w3.org/1999/xlink" x="0px" y="0px"
	 viewBox="0 0 1964 973" style="enable-background:new 0 0 1964 973;" xml:space="preserve">
<style type="text/css">
	.st0{fill:#E0E0E0;}
	.st1{fill:#E5E5E5;}
	.st2{fill:#EAEAEA;}
	.st3{fill:#EFEFEF;}
</style>
<g id="Layer_5">
	<rect y="559" class="st0" width="1964" height="414"/>
</g>
<g id="Layer_4">
	<path class="st1" d="M1964,568.2c0,0-188,171.8-426,171.8s-372-116-600-116S691,902,375,902S0,847.2,0,847.2L0,0h1964V568.2z"/>
</g>
<g id="Layer_3">
	<path class="st2" d="M1964,242.6c-38,5.4-68,94.4-357,187.4c-306,96-463-119-671-66c-323,60-472,358-661,378S0,683.9,0,683.9L0,0
		h1964C1964,0,1964,232,1964,242.6z"/>
</g>
<g id="Layer_2">
	<path class="st3" d="M1964,0c0,0-75,155-253.5,186c-184.6,34-289.6-89-591.5-60c-383.5,35-485.9,302-697,328C162.9,489,0,372,0,372
		L0,0H1964z"/>
</g>
</svg>
