<svg xmlns="http://www.w3.org/2000/svg" viewBox="0 0 87.93 129.23"><defs><clipPath id="clippath"><path d="M8.2 23.65h35.77v87.84H8.2z" class="icon-light-bulb--cls-1"/></clipPath><clipPath id="clippath-1"><path d="M43.96 23.65h35.77v87.84H43.96z" class="icon-light-bulb--cls-1"/></clipPath><style>.icon-light-bulb--cls-1,.icon-light-bulb--cls-2,.icon-light-bulb--cls-3{fill:none}.icon-light-bulb--cls-2{stroke-linecap:round}.icon-light-bulb--cls-2,.icon-light-bulb--cls-3{stroke:#231f20;stroke-miterlimit:10;stroke-width:4px}</style></defs><path id="_Mirror_Repeat_" d="M30.29 110.78s-7.71-20.23-14.42-32.49c-3.32-5.22-8.01-15.5-4.31-26.69 0 0 6.63-25.94 32.41-25.94" class="icon-light-bulb--cls-3" style="clip-path:url(#clippath)"/><path id="_Mirror_Repeat_-2" d="M57.64 110.78s7.71-20.23 14.42-32.49c3.32-5.22 8.01-15.5 4.31-26.69 0 0-6.63-25.94-32.41-25.94" class="icon-light-bulb--cls-3" style="clip-path:url(#clippath-1)"/><path d="M29.71 108.87h28.97v5.76c0 2.24-1.82 4.07-4.07 4.07H33.77c-2.24 0-4.07-1.82-4.07-4.07v-5.76Z" class="icon-light-bulb--cls-3"/><path d="M33.19 118.11c0 5.03 4.93 9.11 11 9.11 6.08 0 11-4.08 11-9.11" class="icon-light-bulb--cls-3"/><path d="M49.23 35.01s6.34.62 11.81 6.09c5.47 5.47 5.84 9.99 5.84 9.99M43.98 15.39 44.18 2M63 19.65l5.53-12.2M75.65 31.01l10.28-8.59M24.93 19.65 19.4 7.45M12.27 31.01 2 22.42" class="icon-light-bulb--cls-2"/></svg>