<svg version="1.1" xmlns="http://www.w3.org/2000/svg" xmlns:xlink="http://www.w3.org/1999/xlink" x="0px" y="0px" viewBox="0 0 126 144" style="enable-background:new 0 0 126 144;" xml:space="preserve"><style type="text/css">.icon-calendar--st0{fill:#FFFFFF;stroke:#000000;stroke-width:4;stroke-miterlimit:10;}.icon-calendar--st1{fill:none;stroke:#000000;stroke-width:4;stroke-miterlimit:10;}</style><path class="icon-calendar--st0" d="M117.6,13.5H8.4c-3.1,0-5.6,2.5-5.6,5.6v96.8c0,8.4,6.8,15.1,15.1,15.1c0,0,67.5,0,74.4,0c6.9,0,31-30.3,31-30.3l0-81.6C123.2,16,120.7,13.5,117.6,13.5z"/><line class="icon-calendar--st1" x1="2.2" y1="33.1" x2="123.2" y2="33.1"/><rect x="24.4" y="3.6" class="icon-calendar--st1" width="3.9" height="19.3"/><rect x="99.4" y="3.6" class="icon-calendar--st1" width="3.9" height="19.3"/><rect x="15" y="48" class="icon-calendar--st1" width="16" height="16"/><rect x="41.6" y="48" class="icon-calendar--st1" width="16" height="16"/><rect x="68.5" y="48" class="icon-calendar--st1" width="16" height="16"/><rect x="94.4" y="48" class="icon-calendar--st1" width="16" height="16"/><rect x="15" y="74.3" class="icon-calendar--st1" width="16" height="16"/><rect x="41.6" y="74.3" class="icon-calendar--st1" width="16" height="16"/><rect x="68.5" y="74.3" class="icon-calendar--st1" width="16" height="16"/><rect x="94.4" y="74.3" class="icon-calendar--st1" width="16" height="16"/><path class="icon-calendar--st1" d="M31,116.7H20.4c-3,0-5.4-2.4-5.4-5.4v-10.6h16V116.7z"/><rect x="41.6" y="100.7" class="icon-calendar--st1" width="16" height="16"/><rect x="68.5" y="100.7" class="icon-calendar--st1" width="16" height="16"/><path class="icon-calendar--st1" d="M94.4,131v-24.4c0-3.3,2.6-5.9,5.9-5.9h23v23.6c0,8.4-6.8,15.2-15.2,15.2H17.9c-8.4,0-15.1-6.8-15.1-15.2v-23.6"/></svg>