<svg xmlns="http://www.w3.org/2000/svg" viewBox="0 0 122.09 128.92"><defs><style>.icon-clipboard--cls-1{stroke-linecap:round}.icon-clipboard--cls-1,.icon-clipboard--cls-2{fill:none;stroke:#231f20;stroke-miterlimit:10;stroke-width:4px}</style></defs><path d="M88.52 33.69h19.58M108.1 33.69c6.62 0 12 5.37 12 12v69.23c0 6.62-5.37 12-12 12H14c-6.62 0-12-5.37-12-12V45.68c0-6.62 5.37-12 12-12h18.87" class="icon-clipboard--cls-2"/><rect width="52.32" height="15.19" x="34.33" y="28.1" class="icon-clipboard--cls-2" rx="1.74" ry="1.74"/><path d="M28.61 41.29H12.72a3.16 3.16 0 0 0-3.16 3.16v71.79a3.16 3.16 0 0 0 3.16 3.16h96.83a3.16 3.16 0 0 0 3.16-3.16v-71.8a3.16 3.16 0 0 0-3.16-3.16H93.43" class="icon-clipboard--cls-1"/><path d="M74.77 26.09V14.05C74.77 7.4 69.38 2 62.72 2h-3.36c-6.65 0-12.05 5.39-12.05 12.05V26.1" class="icon-clipboard--cls-2"/><circle cx="61.13" cy="15.01" r="5.84" class="icon-clipboard--cls-2"/><path d="m24.11 53.86 14.72 14.72M38.83 53.86 24.11 68.58M54.11 53.86l14.72 14.72M68.83 53.86 54.11 68.58" class="icon-clipboard--cls-1"/><circle cx="32.89" cy="92.45" r="9.26" class="icon-clipboard--cls-1"/><path d="m90.05 97.34 14.72 14.72M104.77 97.34l-14.72 14.72M42.15 92.45H71.9c23.16 0 21.11-30.84 21.11-30.84M93.05 58.22l7.36 7.36M93.05 58.22l-7.36 7.36" class="icon-clipboard--cls-1"/></svg>