<svg xmlns="http://www.w3.org/2000/svg" xml:space="preserve" style="enable-background:new 0 0 127.4 104.8" viewBox="0 0 127.4 104.8"><style>.icon-confidential--st0{fill:none;stroke:#231f20;stroke-width:4;stroke-miterlimit:10}</style><path d="M109.7 18.4H66.8c-6.7 0-4.1-15.8-13.1-15.8H17c-8.3 0-15 6.7-15 15v70.8c0 8.3 6.7 15 15 15h93.4c8.3 0 15-6.7 15-15V33.8c0-8.3-7.4-15.4-15.7-15.4z" class="icon-confidential--st0"/><path d="M60.3 10h50.9c7.9 0 14.2 6.4 14.2 14.2v11.4M78.7 55.4H49c-1.6 0-2.9 1.3-2.9 2.9v26.1c0 1.6 1.3 2.9 2.9 2.9h29.7c1.6 0 2.9-1.3 2.9-2.9V58.3c0-1.6-1.3-2.9-2.9-2.9z" class="icon-confidential--st0"/><path d="M76.4 46.8c0 3.3 0 8.6-.4 8.6s-22.3 0-24.1-.2c-.4 0-.2-5.1-.2-8.5 0-7.1 5.2-12.9 12.4-12.9 7.1.1 12.3 5.9 12.3 13z" class="icon-confidential--st0"/><circle cx="63.9" cy="68.3" r="4.6" class="icon-confidential--st0"/><path d="M63.9 79.6v-6.7" style="fill:none;stroke:#231f20;stroke-width:4;stroke-linecap:round;stroke-miterlimit:10"/></svg>