<svg xmlns="http://www.w3.org/2000/svg" viewBox="0 0 118.25 129.37"><defs><style>.icon-mentor--cls-1{stroke-linecap:round}.icon-mentor--cls-1,.icon-mentor--cls-2{fill:none;stroke:#000;stroke-linejoin:round;stroke-width:4px}</style></defs><path d="m116.25 93.87-33.5 33.5-11.3-11.3 16.84-34.65 2.68-5.52 25.28 17.97zM50.8 25.49 10.27 50.03 2 36.36 26.62 6.72 30.54 2 50.8 25.49z" class="icon-mentor--cls-2"/><path d="M29.59 100.72s-7.66-1.12-8.59-5.6-7.27-47.18-3.88-49.23M29.59 81.29v21.46s1.19 2.41 4.77 2.41 4.62-.93 4.62-.93M41.06 85.99v21.46s1.19 2.41 4.77 2.41 4.62-.93 4.62-.93M51.8 87.99v21.46s2.41 3.37 5.99 3.37 4.41-1.36 6.16-3.36c1.33-2.87 1.19-6.37.77-15.76s-2.38-29.07-2.38-29.07-4.9-.14-8.61-3.71c-9.18 4.27-14.09-6.3-13.38-7.49 2.66-7.91 14.64-7 19.82-7s12.75 2.59 15.97 6.37 11.35 28.51 11.35 28.51M61.07 46.07 44.84 29.1M73.2 111.13l-8.71-3.17" class="icon-mentor--cls-1"/></svg>