<svg xmlns="http://www.w3.org/2000/svg" xml:space="preserve" style="enable-background:new 0 0 138.5 121" viewBox="0 0 138.5 121"><style>.icon-graph--st0{fill:none;stroke:#000;stroke-width:4;stroke-miterlimit:10}</style><path d="M30.7 88.8H9.2c-3.1 0-5.6 2.5-5.6 5.6V118h32.8V94.4c0-3.1-2.6-5.6-5.7-5.6zM63.7 61.3H42.2c-3.1 0-5.6 2.5-5.6 5.6V118h32.8V66.9c0-3.1-2.6-5.6-5.7-5.6zM96.7 31.8H75.2c-3.1 0-5.6 2.5-5.6 5.6V118h32.8V37.4c0-3.1-2.6-5.6-5.7-5.6zM129.7 2.8h-21.5c-3.1 0-5.6 2.5-5.6 5.6V118h32.8V8.4c0-3.1-2.6-5.6-5.7-5.6z" class="icon-graph--st0"/></svg>