<svg xmlns="http://www.w3.org/2000/svg" xml:space="preserve" x="0" y="0" style="enable-background:new 0 0 124 105.5" version="1.1" viewBox="0 0 124 105.5"><style>.icon-quote-open--st0{fill:#231f20}</style><path d="M46.2.9S.4 19 .4 68.2c0 28 22.7 37.1 31.5 37.1 21.2 0 27.7-14.6 27.7-28.8 0-17.2-13.5-25.4-23.8-25.4-8.9 0-14.6 2-14.6 2s.6-15 10.4-24.8 21-16.5 21-16.5 3.5-3.1 1.6-7.6-8-3.3-8-3.3zM110.2.9S64.4 19 64.4 68.2c0 28 22.7 37.1 31.5 37.1 21.2 0 27.7-14.6 27.7-28.8 0-17.2-13.5-25.4-23.8-25.4-8.9 0-14.6 2-14.6 2s.6-15 10.4-24.8 21-16.5 21-16.5 3.5-3.1 1.6-7.6-8-3.3-8-3.3z" class="icon-quote-open--st0"/></svg>