<svg xmlns="http://www.w3.org/2000/svg" viewBox="0 0 117.52 130.25"><defs><style>.icon-brain--cls-1{fill:#231f20;}.icon-brain--cls-2{stroke-linecap:round;}.icon-brain--cls-2,.icon-brain--cls-3{fill:none;stroke:#231f20;stroke-miterlimit:10;stroke-width:4px;}</style></defs><path class="icon-brain--cls-3" d="M53.41,105.21c-.49,1.96-21.15,13.59-36.14,13.59-5.67,0-4.86-12.37-3.72-14.91,1.18-2.63-5.13-3.84-5.13-5.03s1.05-2.17,1.05-3.64-3.15-2.03-3.15-3.43,2.52-5.32,2.52-7.42-6.84-5.57-6.84-9.18,11.53-15.13,11.18-21.5c0-2.03-3.06-5.49-3.06-7.45s1.13-4.9,1.31-6.9C15.07-1.21,69.7,2.06,69.7,2.06c0,0,23.72,.47,37.54,16.25s6.16,38.38,6.16,38.38c0,0,.12,1.03-13.38,23.46-8.67,16.14-.94,37.53,2.22,44.92,.54,1.26-.37,2.66-1.74,2.67l-48.53,.51c-1.17,.01-2.25-.62-2.81-1.65,0,0-5.65-12.91-7.96-14.04"/><path class="icon-brain--cls-2" d="M100.93,33.29c0-7.65-6.2-13.85-13.85-13.85-2.24,0-4.35,.54-6.22,1.49-1.64-5.82-6.98-10.09-13.32-10.09-5.52,0-10.27,3.24-12.5,7.91-2.49-2.4-5.87-3.88-9.6-3.88-7.65,0-13.85,6.2-13.85,13.85,0,2.42,.63,4.7,1.72,6.68-2.04,2.41-3.28,5.53-3.28,8.94,0,7.65,6.2,13.85,13.85,13.85,3.31,0,6.35-1.17,8.73-3.1,2.36,4.26,6.9,7.15,12.12,7.15s10.01-3.06,12.31-7.52c2.44,2.16,5.64,3.47,9.15,3.47,7.65,0,13.85-6.2,13.85-13.85,0-1.57-.27-3.07-.75-4.48,1.05-1.95,1.65-4.19,1.65-6.56Z"/><path class="icon-brain--cls-1" style="fill:#9a0414;" d="M45.93,32.82c0-.07,.02-.14,.03-.21l-.09,.66c.11-.8,.33-1.57,.63-2.32l-.25,.6c.34-.81,.78-1.56,1.32-2.26l-.39,.51c.5-.63,1.07-1.2,1.71-1.7l-.51,.39c.2-.15,.4-.29,.6-.42,.54-.35,.97-.86,1.15-1.49,.16-.6,.09-1.4-.25-1.93-.7-1.09-2.25-1.66-3.42-.9-1.54,1.01-2.83,2.31-3.81,3.88s-1.5,3.35-1.72,5.19c-.07,.59,.33,1.37,.73,1.77,.43,.43,1.15,.76,1.77,.73s1.32-.24,1.77-.73l.39-.51c.23-.39,.34-.81,.34-1.26h0Z"/><path class="icon-brain--cls-1" style="fill:#9a0414;" d="M82.93,46.13c1.97,.74,4.26,.36,6.08-.62s3.28-2.76,3.72-4.77c.15-.65,.09-1.34-.25-1.93-.3-.52-.9-1.01-1.49-1.15-1.27-.29-2.77,.38-3.08,1.75-.06,.28-.15,.55-.26,.82l.25-.6c-.16,.37-.37,.71-.61,1.03l.39-.51c-.29,.36-.61,.68-.98,.96l.51-.39c-.37,.28-.77,.51-1.19,.7l.6-.25c-.45,.19-.92,.32-1.41,.39l.66-.09c-.43,.05-.85,.06-1.28,0l.66,.09c-.34-.05-.67-.13-1-.25-.58-.22-1.41-.05-1.93,.25s-1.01,.9-1.15,1.49c-.15,.64-.11,1.36,.25,1.93s.85,.91,1.49,1.15h0Z"/><path class="icon-brain--cls-1" style="fill:#9a0414;" d="M68.58,48.42c-.23,0-.47-.03-.7-.06l.66,.09c-.58-.08-1.14-.24-1.68-.47l.6,.25c-.57-.24-1.09-.55-1.58-.92l.51,.39c-.46-.36-.88-.77-1.24-1.23l.39,.51c-.3-.39-.56-.82-.77-1.27-.25-.54-.94-1-1.49-1.15-.6-.16-1.4-.09-1.93,.25s-1,.86-1.15,1.49c-.16,.69-.05,1.29,.25,1.93,.72,1.52,1.94,2.78,3.34,3.7s3.11,1.42,4.8,1.48c1.31,.05,2.56-1.18,2.5-2.5-.06-1.39-1.1-2.45-2.5-2.5h0Z"/><path class="icon-brain--cls-1" style="fill:#9a0414;" d="M67.26,22.88c.53,.1,1.04,.25,1.53,.46l-.6-.25c.6,.26,1.17,.6,1.69,1l-.51-.39c.55,.43,1.04,.93,1.48,1.48l-.39-.51c.45,.59,.83,1.23,1.12,1.92l-.25-.6c.06,.14,.11,.28,.16,.42,.22,.62,.56,1.15,1.15,1.49,.54,.31,1.33,.45,1.93,.25s1.19-.57,1.49-1.15,.48-1.3,.25-1.93c-.62-1.74-1.6-3.36-3-4.59s-2.95-2.11-4.72-2.43c-.67-.12-1.32-.11-1.93,.25-.52,.3-1.01,.9-1.15,1.49-.15,.64-.11,1.36,.25,1.93,.33,.52,.86,1.03,1.49,1.15h0Z"/></svg>