<svg xmlns="http://www.w3.org/2000/svg" xml:space="preserve" x="0" y="0" style="enable-background:new 0 0 120 132.5" version="1.1" viewBox="0 0 120 132.5"><style>.icon-brain-visualization--st0,.icon-brain-visualization--st1{fill:none;stroke:#231f20;stroke-width:4;stroke-miterlimit:10}.icon-brain-visualization--st1{stroke-linejoin:round}</style><path d="M54.1 106.6c-.5 2-21.2 13.6-36.1 13.6-5.7 0-4.9-12.4-3.7-14.9 1.2-2.6-5.1-3.8-5.1-5 0-1.2 1.1-2.2 1.1-3.6 0-1.5-3.2-2-3.2-3.4s2.5-5.3 2.5-7.4c0-2.1-6.8-5.6-6.8-9.2 0-3.6 11.5-15.1 11.2-21.5 0-2-3.1-5.5-3.1-7.4s1.1-4.9 1.3-6.9C15.8.2 70.4 3.4 70.4 3.4s23.7.5 37.5 16.2 6.2 38.4 6.2 38.4.1 1-13.4 23.5c-8.7 16.1-.9 37.5 2.2 44.9.5 1.3-.4 2.7-1.7 2.7l-48.5.5c-1.2 0-2.2-.6-2.8-1.6 0 0-5.7-12.9-8-14" class="icon-brain-visualization--st0"/><path d="M54.1 106.6c-.5 2-21.2 13.6-36.1 13.6-5.7 0-4.9-12.4-3.7-14.9 1.2-2.6-5.1-3.8-5.1-5 0-1.2 1.1-2.2 1.1-3.6 0-1.5-3.2-2-3.2-3.4s2.5-5.3 2.5-7.4c0-2.1-6.8-5.6-6.8-9.2 0-3.6 11.5-15.1 11.2-21.5 0-2-3.1-5.5-3.1-7.4s1.1-4.9 1.3-6.9C15.8.2 70.4 3.4 70.4 3.4s23.7.5 37.5 16.2 6.2 38.4 6.2 38.4.1 1-13.4 23.5c-8.7 16.1-.9 37.5 2.2 44.9.5 1.3-.4 2.7-1.7 2.7l-48.5.5c-1.2 0-2.2-.6-2.8-1.6 0 0-5.7-12.9-8-14" class="icon-brain-visualization--st0"/><path d="M26 40.5s19.2-23.7 38.9-23.7 39.5 23.7 39.5 23.7-14.8 23.6-39.3 23.6S26 40.5 26 40.5z" class="icon-brain-visualization--st1"/><circle cx="64.7" cy="40.7" r="14.5" class="icon-brain-visualization--st1"/></svg>