<svg xmlns="http://www.w3.org/2000/svg" viewBox="0 0 117.57 128.92"><defs><style>.icon-parents--cls-1{fill:none;stroke:#221f1f;stroke-linecap:round;stroke-linejoin:round;stroke-width:4px}</style></defs><path d="M100.93 40.07c-28.2-19.24-42.15 14.94-42.15 14.94S44.83 20.83 16.63 40.07c-29.88 24.09-6.41 47.47 3.92 55.84 10.33 8.38 38.23 31 38.23 31s27.9-22.63 38.23-31c10.33-8.38 33.81-31.75 3.92-55.84Z" class="icon-parents--cls-1"/><path d="M21.18 65.72s-1.56 5.99 4.11 11.78c4.82 5.21 18.86 17 20.36 19.8s1.4 5.14-2.24 8.78c-3.64 3.64-9.64.55-9.64.55M96.36 65.72s1.56 5.99-4.11 11.78c-4.82 5.21-18.86 17-20.36 19.8s-1.4 5.14 2.24 8.78c3.64 3.64 9.64.55 9.64.55" class="icon-parents--cls-1"/><circle cx="58.78" cy="75.09" r="10.09" class="icon-parents--cls-1"/><path d="M46.55 100.38s3.02-9.25 12.23-9.25 12.2 9.25 12.2 9.25" class="icon-parents--cls-1"/><circle cx="32.17" cy="15.47" r="13.47" class="icon-parents--cls-1"/><circle cx="84.17" cy="15.47" r="13.47" class="icon-parents--cls-1"/></svg>