<svg xmlns="http://www.w3.org/2000/svg" xml:space="preserve" style="enable-background:new 0 0 124 105.5" viewBox="0 0 124 105.5"><style>.icon-quote-close--st0{fill:#231f20}</style><path d="M77.8.9s45.8 18.1 45.8 67.3c0 28-22.7 37.1-31.5 37.1-21.2 0-27.7-14.6-27.7-28.8 0-17.2 13.5-25.4 23.8-25.4 8.9 0 14.6 2 14.6 2s-.6-15-10.4-24.8-21-16.5-21-16.5-3.5-3.1-1.6-7.6 8-3.3 8-3.3zM13.8.9S59.6 19 59.6 68.2c0 28-22.7 37.1-31.5 37.1C7 105.3.4 90.7.4 76.5c0-17.2 13.5-25.4 23.8-25.4 8.9 0 14.6 2 14.6 2s-.6-15-10.4-24.8-21-16.5-21-16.5-3.6-3.1-1.6-7.6 8-3.3 8-3.3z" class="icon-quote-close--st0"/></svg>