<svg xmlns="http://www.w3.org/2000/svg" xml:space="preserve" x="0" y="0" style="enable-background:new 0 0 120 132.5" version="1.1" viewBox="0 0 120 132.5"><style>.icon-brain-tough--st0,.icon-brain-tough--st1{fill:none;stroke:#231f20;stroke-width:4;stroke-miterlimit:10}.icon-brain-tough--st1{fill:#fff}</style><path d="M54.6 106.9c-.5 2-21.2 13.6-36.1 13.6-5.7 0-4.9-12.4-3.7-14.9 1.2-2.6-5.1-3.8-5.1-5 0-1.2 1.1-2.2 1.1-3.6 0-1.5-3.2-2-3.2-3.4s2.5-5.3 2.5-7.4c0-2.1-6.8-5.6-6.8-9.2 0-3.6 11.5-15.1 11.2-21.5 0-2-3.1-5.5-3.1-7.4s1.1-4.9 1.3-6.9C16.3.5 70.9 3.7 70.9 3.7s23.7.5 37.6 16.3 6.2 38.4 6.2 38.4.1 1-13.4 23.5c-8.7 16.1-.9 37.5 2.2 44.9.5 1.3-.4 2.7-1.7 2.7l-48.5.5c-1.2 0-2.2-.6-2.8-1.6 0 0-5.7-12.9-8-14" class="icon-brain-tough--st0"/><path d="M102.1 44.4H27.9c-1.4 0-2.5-1.1-2.5-2.5v-3.3c0-1.4 1.1-2.5 2.5-2.5h74.2c1.4 0 2.5 1.1 2.5 2.5v3.3c0 1.4-1.1 2.5-2.5 2.5z" class="icon-brain-tough--st0"/><path d="M40.7 24.8h-5.2c-1.4 0-2.5 1.1-2.5 2.5v27c0 1.4 1.1 2.5 2.5 2.5h5.2c1.4 0 2.5-1.1 2.5-2.5v-27c0-1.4-1.1-2.5-2.5-2.5z" class="icon-brain-tough--st1"/><path d="M50.9 20.3h-5.2c-1.4 0-2.5 1.1-2.5 2.5v35c0 1.4 1.1 2.5 2.5 2.5h5.2c1.4 0 2.5-1.1 2.5-2.5v-35c0-1.3-1.1-2.5-2.5-2.5zM89.7 24.8h5.2c1.4 0 2.5 1.1 2.5 2.5v27c0 1.4-1.1 2.5-2.5 2.5h-5.2c-1.4 0-2.5-1.1-2.5-2.5v-27c0-1.4 1.1-2.5 2.5-2.5zM79.5 20.3h5.2c1.4 0 2.5 1.1 2.5 2.5v35c0 1.4-1.1 2.5-2.5 2.5h-5.2c-1.4 0-2.5-1.1-2.5-2.5v-35c0-1.3 1.1-2.5 2.5-2.5z" class="icon-brain-tough--st1"/></svg>