<svg xmlns="http://www.w3.org/2000/svg" xmlns:xlink="http://www.w3.org/1999/xlink" viewBox="0 0 293 75"><defs><style>.logo--cls-1{fill:none;stroke:url(#linear-gradient);stroke-miterlimit:10;stroke-width:12px;}</style><linearGradient id="linear-gradient" x1="37.5" y1="0" x2="37.5" y2="75" gradientTransform="matrix(1, 0, 0, 1, 0, 0)" gradientUnits="userSpaceOnUse"><stop offset="0" stop-color="#db3a3a"/><stop offset=".48" stop-color="#d53230"/><stop offset=".99" stop-color="#cc2521"/></linearGradient></defs><g><path d="M84.43,31.35V14.31h7.27c.82,0,1.56,.17,2.24,.5,.68,.34,1.26,.78,1.75,1.32,.49,.54,.87,1.16,1.15,1.85,.28,.69,.42,1.38,.42,2.09,0,.75-.13,1.47-.4,2.16-.26,.69-.63,1.3-1.1,1.85-.47,.54-1.04,.98-1.72,1.3-.67,.32-1.42,.48-2.23,.48h-3.46v5.5h-3.94Zm3.94-8.93h3.22c.46,0,.86-.2,1.2-.6s.5-.98,.5-1.75c0-.4-.05-.74-.16-1.03-.1-.29-.24-.53-.42-.72-.18-.19-.38-.33-.6-.42-.22-.09-.45-.13-.67-.13h-3.07v4.66Z"/><path d="M104.85,31.59c-1.07,0-2.03-.18-2.87-.53-.84-.35-1.55-.83-2.12-1.43-.58-.6-1.01-1.3-1.31-2.09-.3-.79-.44-1.62-.44-2.48s.15-1.69,.44-2.48c.3-.79,.73-1.49,1.31-2.09,.58-.6,1.28-1.08,2.12-1.44,.84-.36,1.8-.54,2.87-.54s2.02,.18,2.86,.54c.83,.36,1.54,.84,2.11,1.44,.58,.6,1.02,1.3,1.32,2.09s.46,1.62,.46,2.48-.15,1.69-.44,2.48c-.3,.79-.73,1.49-1.31,2.09s-1.28,1.08-2.12,1.43c-.84,.35-1.8,.53-2.87,.53Zm-2.81-6.53c0,.99,.26,1.79,.79,2.39,.53,.6,1.2,.9,2.02,.9,.4,0,.77-.08,1.1-.24s.63-.38,.88-.67c.25-.29,.44-.64,.59-1.04,.14-.41,.22-.85,.22-1.33,0-.99-.26-1.79-.79-2.39-.53-.6-1.19-.9-1.99-.9-.4,0-.77,.08-1.12,.24-.34,.16-.64,.38-.89,.67-.25,.29-.44,.64-.59,1.04-.14,.41-.22,.85-.22,1.33Z"/><path d="M121.49,22.03c-.93,.02-1.77,.17-2.52,.46s-1.29,.72-1.63,1.3v7.56h-3.84v-12.6h3.53v2.54c.43-.85,.99-1.51,1.67-1.99,.68-.48,1.4-.73,2.17-.74h.38c.08,0,.16,0,.24,.02v3.46Z"/><path d="M131.25,30.67c-.53,.22-1.13,.43-1.81,.62-.68,.19-1.36,.29-2.05,.29-.48,0-.93-.06-1.36-.18s-.8-.31-1.12-.58c-.32-.26-.57-.61-.76-1.04-.18-.43-.28-.95-.28-1.56v-6.58h-1.61v-2.9h1.61v-4.01h3.84v4.01h2.57v2.9h-2.57v5.26c0,.42,.1,.72,.31,.9,.21,.18,.47,.28,.79,.28,.29,0,.58-.05,.89-.14,.3-.1,.57-.2,.79-.31l.74,3.05Z"/><path d="M132.69,13.83h3.84v13.03c0,.96,.41,1.44,1.22,1.44,.19,0,.4-.03,.64-.08,.23-.06,.44-.14,.64-.25l.5,2.88c-.48,.22-1.03,.4-1.66,.53-.62,.13-1.21,.19-1.75,.19-1.1,0-1.95-.29-2.54-.86-.59-.58-.89-1.41-.89-2.5V13.83Z"/><path d="M144.36,31.59c-.62,0-1.21-.1-1.74-.3-.54-.2-1-.48-1.38-.84-.38-.36-.69-.78-.91-1.27-.22-.49-.34-1.02-.34-1.6,0-.62,.13-1.19,.4-1.7s.64-.95,1.12-1.32c.48-.37,1.05-.66,1.7-.86s1.38-.31,2.18-.31c.53,0,1.04,.04,1.54,.13s.93,.22,1.3,.4v-.58c0-1.46-.84-2.18-2.52-2.18-.69,0-1.34,.12-1.97,.35-.62,.23-1.28,.58-1.97,1.04l-1.13-2.4c.83-.54,1.7-.95,2.59-1.22s1.85-.41,2.86-.41c1.9,0,3.38,.45,4.42,1.34s1.56,2.21,1.56,3.94v3.24c0,.38,.06,.65,.18,.8,.12,.15,.33,.24,.64,.28v3.24c-.34,.08-.64,.13-.91,.16s-.52,.04-.74,.04c-.72,0-1.26-.14-1.63-.42s-.6-.68-.7-1.19l-.07-.58c-.56,.72-1.23,1.27-2,1.66-.78,.38-1.6,.58-2.46,.58Zm1.13-2.76c.42,0,.82-.07,1.21-.22,.39-.14,.71-.34,.97-.58,.37-.29,.55-.59,.55-.91v-1.2c-.34-.13-.7-.23-1.09-.3s-.76-.11-1.09-.11c-.71,0-1.28,.16-1.74,.48-.46,.32-.68,.74-.68,1.25,0,.46,.18,.84,.53,1.14,.35,.3,.8,.44,1.34,.44Z"/><path d="M166.99,31.35h-3.84v-7.08c0-.83-.16-1.44-.47-1.81-.31-.38-.72-.56-1.24-.56-.27,0-.54,.06-.82,.17-.27,.11-.54,.27-.79,.47-.26,.2-.48,.44-.68,.71-.2,.27-.36,.57-.47,.89v7.22h-3.84v-12.6h3.46v2.11c.46-.75,1.12-1.33,1.97-1.74,.85-.41,1.82-.61,2.93-.61,.82,0,1.47,.15,1.97,.44,.5,.3,.88,.68,1.15,1.15,.27,.47,.45,.99,.54,1.55s.13,1.1,.13,1.63v8.06Z"/><path d="M174.76,31.59c-.86,0-1.66-.17-2.39-.49-.73-.33-1.36-.79-1.88-1.38-.53-.59-.94-1.28-1.24-2.08-.3-.79-.44-1.66-.44-2.6s.14-1.77,.41-2.57c.27-.8,.66-1.49,1.15-2.08,.5-.58,1.08-1.04,1.76-1.38s1.43-.5,2.24-.5c.88,0,1.68,.21,2.39,.62s1.26,.98,1.64,1.68v-6.98h3.84v13.2c0,.38,.06,.65,.18,.8,.12,.15,.33,.24,.64,.28v3.24c-.35,.08-.66,.13-.91,.16-.26,.02-.5,.04-.72,.04-.67,0-1.22-.14-1.63-.42s-.66-.68-.72-1.21l-.07-.65c-.45,.78-1.05,1.37-1.81,1.75-.76,.38-1.57,.58-2.44,.58Zm1.03-3.24c.53,0,1.04-.16,1.52-.47,.49-.31,.86-.74,1.12-1.28v-2.64c-.24-.64-.63-1.16-1.16-1.57s-1.09-.61-1.67-.61c-.42,0-.8,.09-1.14,.28-.34,.18-.64,.43-.9,.73-.26,.3-.45,.66-.59,1.06-.14,.4-.2,.82-.2,1.27s.08,.9,.23,1.3c.15,.4,.36,.74,.62,1.03,.26,.29,.58,.51,.96,.67s.78,.24,1.21,.24Z"/><path d="M94.65,48.1c-.05-.06-.22-.18-.5-.36-.29-.18-.65-.36-1.08-.55s-.9-.36-1.42-.5c-.51-.14-1.02-.22-1.54-.22-1.41,0-2.11,.47-2.11,1.42,0,.29,.08,.53,.23,.72,.15,.19,.38,.36,.67,.52,.3,.15,.67,.29,1.12,.42,.45,.13,.97,.27,1.56,.43,.82,.22,1.55,.47,2.21,.73,.66,.26,1.21,.59,1.67,.98,.46,.39,.81,.87,1.06,1.43,.25,.56,.37,1.23,.37,2.02,0,.96-.18,1.77-.54,2.44-.36,.66-.84,1.2-1.43,1.61-.59,.41-1.27,.7-2.04,.89s-1.56,.28-2.38,.28c-.62,0-1.26-.05-1.92-.14-.66-.1-1.3-.24-1.92-.42-.62-.18-1.23-.4-1.81-.66-.58-.26-1.12-.55-1.62-.89l1.73-3.43c.06,.08,.27,.23,.62,.46,.35,.22,.79,.45,1.31,.67,.52,.22,1.1,.42,1.74,.6,.64,.18,1.29,.26,1.94,.26,1.39,0,2.09-.42,2.09-1.27,0-.32-.1-.58-.31-.79s-.5-.4-.86-.56c-.37-.17-.8-.32-1.31-.47-.5-.14-1.05-.3-1.64-.48-.78-.24-1.46-.5-2.04-.78-.58-.28-1.05-.6-1.43-.97-.38-.37-.66-.79-.84-1.27-.18-.48-.28-1.04-.28-1.68,0-.9,.17-1.69,.5-2.38,.34-.69,.79-1.27,1.37-1.74,.58-.47,1.24-.83,2-1.07s1.56-.36,2.41-.36c.59,0,1.18,.06,1.75,.17,.58,.11,1.13,.26,1.66,.43,.53,.18,1.02,.38,1.48,.6,.46,.22,.88,.45,1.26,.67l-1.73,3.26Z"/><path d="M106.85,60.39c-.96,0-1.79-.2-2.5-.6-.7-.4-1.25-.96-1.63-1.68v7.15h-3.84v-17.71h3.34v2.04c.46-.72,1.04-1.28,1.74-1.68,.7-.4,1.52-.6,2.48-.6,.85,0,1.63,.17,2.34,.5s1.33,.8,1.85,1.38c.52,.58,.93,1.27,1.22,2.06,.3,.79,.44,1.64,.44,2.56s-.13,1.82-.41,2.62-.65,1.49-1.13,2.08-1.06,1.04-1.73,1.38-1.4,.5-2.18,.5Zm-1.3-3.24c.42,0,.8-.09,1.14-.28,.34-.18,.64-.43,.9-.73s.45-.66,.59-1.07c.14-.41,.2-.84,.2-1.28s-.08-.89-.23-1.28c-.15-.39-.36-.73-.62-1.02s-.58-.51-.96-.67c-.38-.16-.78-.24-1.21-.24-.53,0-1.04,.16-1.52,.47-.49,.31-.86,.73-1.12,1.26v2.59c.26,.64,.64,1.18,1.16,1.61,.52,.43,1.08,.65,1.67,.65Z"/><path d="M120.24,60.39c-1.07,0-2.03-.18-2.87-.53s-1.55-.83-2.12-1.43c-.58-.6-1.01-1.3-1.31-2.09-.3-.79-.44-1.62-.44-2.48s.15-1.69,.44-2.48c.3-.79,.73-1.49,1.31-2.09,.58-.6,1.28-1.08,2.12-1.44,.84-.36,1.8-.54,2.87-.54s2.02,.18,2.86,.54c.83,.36,1.54,.84,2.11,1.44,.58,.6,1.02,1.3,1.32,2.09,.3,.79,.46,1.62,.46,2.48s-.15,1.69-.44,2.48c-.3,.79-.73,1.49-1.31,2.09-.58,.6-1.28,1.08-2.12,1.43s-1.8,.53-2.87,.53Zm-2.81-6.53c0,.99,.26,1.79,.79,2.39,.53,.6,1.2,.9,2.02,.9,.4,0,.77-.08,1.1-.24,.34-.16,.63-.38,.88-.67s.45-.64,.59-1.04,.22-.85,.22-1.33c0-.99-.26-1.79-.79-2.39-.53-.6-1.19-.9-1.99-.9-.4,0-.77,.08-1.12,.24s-.64,.38-.89,.67-.44,.64-.59,1.04-.22,.85-.22,1.33Z"/><path d="M136.87,50.83c-.93,.02-1.77,.17-2.52,.46-.75,.29-1.3,.72-1.63,1.3v7.56h-3.84v-12.6h3.53v2.54c.43-.85,.99-1.51,1.67-1.99,.68-.48,1.4-.73,2.17-.74h.38c.08,0,.16,0,.24,.02v3.46Z"/><path d="M146.64,59.47c-.53,.22-1.13,.43-1.81,.62-.68,.19-1.36,.29-2.05,.29-.48,0-.93-.06-1.36-.18-.42-.12-.8-.31-1.12-.58-.32-.26-.57-.61-.76-1.04-.18-.43-.28-.95-.28-1.56v-6.58h-1.61v-2.9h1.61v-4.01h3.84v4.01h2.57v2.9h-2.57v5.26c0,.42,.1,.72,.31,.9,.21,.18,.47,.28,.79,.28,.29,0,.58-.05,.89-.14,.3-.1,.57-.2,.79-.31l.74,3.05Z"/><path d="M154.03,60.15v-17.04h7.27c.82,0,1.56,.17,2.24,.5s1.26,.78,1.75,1.32,.87,1.16,1.15,1.85c.28,.69,.42,1.38,.42,2.09,0,.75-.13,1.47-.4,2.16-.26,.69-.63,1.3-1.1,1.85-.47,.54-1.04,.98-1.72,1.3s-1.42,.48-2.23,.48h-3.46v5.5h-3.94Zm3.94-8.93h3.22c.46,0,.86-.2,1.2-.6,.34-.4,.5-.98,.5-1.75,0-.4-.05-.74-.16-1.03-.1-.29-.24-.53-.42-.72-.18-.19-.38-.33-.6-.42s-.45-.13-.67-.13h-3.07v4.66Z"/><path d="M173.64,60.39c-1.07,0-2.13-.17-3.17-.52-1.04-.34-1.92-.84-2.64-1.5l1.37-2.35c.77,.53,1.52,.94,2.24,1.22s1.43,.43,2.1,.43c.5,0,.88-.09,1.15-.26,.27-.18,.41-.43,.41-.77s-.17-.6-.52-.8c-.34-.2-.95-.41-1.81-.64-.85-.24-1.56-.47-2.15-.7-.58-.22-1.06-.47-1.43-.74s-.63-.58-.79-.94c-.16-.35-.24-.77-.24-1.25,0-.64,.13-1.22,.38-1.75,.26-.53,.61-.98,1.06-1.34s.98-.66,1.6-.86c.62-.21,1.28-.31,2-.31,.94,0,1.83,.13,2.65,.38s1.62,.72,2.39,1.39l-1.49,2.3c-.72-.5-1.36-.86-1.92-1.08-.56-.22-1.1-.34-1.63-.34-.42,0-.77,.08-1.06,.25s-.43,.44-.43,.8,.16,.62,.47,.79c.31,.18,.89,.37,1.74,.58,.9,.24,1.65,.48,2.27,.72s1.12,.51,1.5,.8,.66,.64,.84,1.02c.18,.38,.26,.84,.26,1.37,0,1.25-.46,2.24-1.39,2.98-.93,.74-2.18,1.1-3.77,1.1Z"/><path d="M180.5,62.04c.32,.11,.62,.19,.9,.24,.28,.05,.53,.07,.76,.07,.46,0,.82-.16,1.08-.48,.26-.32,.49-.9,.7-1.73l-4.8-12.6h3.96l2.93,9.31,2.52-9.31h3.6l-4.8,14.64c-.34,1.04-.94,1.88-1.8,2.53-.86,.65-1.89,.97-3.07,.97-.32,0-.64-.03-.97-.08-.33-.06-.66-.15-1-.28v-3.29Z"/><path d="M192.48,53.83c0-.86,.15-1.69,.46-2.48,.3-.79,.74-1.49,1.32-2.09,.58-.6,1.28-1.08,2.12-1.43,.84-.35,1.8-.53,2.87-.53,1.46,0,2.68,.31,3.67,.92s1.74,1.42,2.23,2.41l-3.74,1.13c-.5-.8-1.22-1.2-2.18-1.2-.8,0-1.47,.3-2,.89-.54,.59-.8,1.38-.8,2.38,0,.5,.07,.95,.22,1.36,.14,.41,.34,.76,.6,1.04s.56,.51,.9,.67c.34,.16,.71,.24,1.09,.24,.48,0,.92-.12,1.32-.35,.4-.23,.7-.53,.89-.9l3.74,1.15c-.46,.98-1.2,1.78-2.22,2.4-1.02,.62-2.25,.94-3.71,.94-1.06,0-2-.18-2.84-.54-.84-.36-1.55-.84-2.14-1.44-.58-.6-1.03-1.3-1.33-2.09-.3-.79-.46-1.62-.46-2.48Z"/><path d="M219.04,60.15h-3.84v-7.08c0-.82-.16-1.42-.48-1.8-.32-.38-.76-.58-1.32-.58-.22,0-.47,.05-.73,.16-.26,.1-.52,.26-.77,.46s-.48,.44-.68,.71-.37,.58-.48,.91v7.22h-3.84v-17.52h3.84v7.03c.46-.75,1.08-1.33,1.84-1.74,.76-.41,1.6-.61,2.51-.61,.85,0,1.53,.15,2.05,.44,.52,.3,.92,.67,1.2,1.13s.47,.97,.56,1.54c.1,.57,.14,1.12,.14,1.67v8.06Z"/><path d="M227.59,60.39c-1.07,0-2.03-.18-2.87-.53s-1.55-.83-2.12-1.43c-.58-.6-1.01-1.3-1.31-2.09s-.44-1.62-.44-2.48,.15-1.69,.44-2.48,.73-1.49,1.31-2.09c.58-.6,1.28-1.08,2.12-1.44,.84-.36,1.8-.54,2.87-.54s2.02,.18,2.86,.54c.83,.36,1.54,.84,2.11,1.44,.58,.6,1.02,1.3,1.32,2.09,.3,.79,.46,1.62,.46,2.48s-.15,1.69-.44,2.48-.73,1.49-1.31,2.09c-.58,.6-1.28,1.08-2.12,1.43-.84,.35-1.8,.53-2.87,.53Zm-2.81-6.53c0,.99,.26,1.79,.79,2.39,.53,.6,1.2,.9,2.02,.9,.4,0,.77-.08,1.1-.24,.34-.16,.63-.38,.88-.67s.44-.64,.59-1.04c.14-.41,.22-.85,.22-1.33,0-.99-.26-1.79-.79-2.39-.53-.6-1.19-.9-1.99-.9-.4,0-.77,.08-1.12,.24-.34,.16-.64,.38-.89,.67-.25,.29-.44,.64-.59,1.04-.14,.41-.22,.85-.22,1.33Z"/><path d="M236.18,42.63h3.84v13.03c0,.96,.41,1.44,1.22,1.44,.19,0,.4-.03,.64-.08,.23-.06,.44-.14,.64-.25l.5,2.88c-.48,.22-1.03,.4-1.66,.53s-1.21,.19-1.75,.19c-1.1,0-1.95-.29-2.54-.86-.59-.58-.89-1.41-.89-2.5v-14.38Z"/><path d="M250.27,60.39c-1.07,0-2.03-.18-2.87-.53s-1.55-.83-2.12-1.43c-.58-.6-1.01-1.3-1.31-2.09s-.44-1.62-.44-2.48,.15-1.69,.44-2.48,.73-1.49,1.31-2.09c.58-.6,1.28-1.08,2.12-1.44,.84-.36,1.8-.54,2.87-.54s2.02,.18,2.86,.54c.83,.36,1.54,.84,2.11,1.44,.58,.6,1.02,1.3,1.32,2.09,.3,.79,.46,1.62,.46,2.48s-.15,1.69-.44,2.48-.73,1.49-1.31,2.09c-.58,.6-1.28,1.08-2.12,1.43-.84,.35-1.8,.53-2.87,.53Zm-2.81-6.53c0,.99,.26,1.79,.79,2.39,.53,.6,1.2,.9,2.02,.9,.4,0,.77-.08,1.1-.24,.34-.16,.63-.38,.88-.67s.44-.64,.59-1.04c.14-.41,.22-.85,.22-1.33,0-.99-.26-1.79-.79-2.39-.53-.6-1.19-.9-1.99-.9-.4,0-.77,.08-1.12,.24-.34,.16-.64,.38-.89,.67-.25,.29-.44,.64-.59,1.04-.14,.41-.22,.85-.22,1.33Z"/><path d="M263.8,60.19c-.83,0-1.59-.17-2.28-.5-.69-.34-1.28-.79-1.76-1.37s-.87-1.25-1.14-2.02c-.27-.77-.41-1.59-.41-2.47,0-.93,.14-1.79,.43-2.58s.69-1.48,1.2-2.06,1.13-1.04,1.85-1.38c.72-.34,1.51-.5,2.38-.5,.96,0,1.79,.2,2.51,.61,.71,.41,1.28,.97,1.72,1.69v-2.06h3.34v11.74c0,.96-.18,1.82-.54,2.59-.36,.77-.86,1.42-1.5,1.96s-1.41,.95-2.3,1.24c-.9,.29-1.88,.43-2.95,.43-1.36,0-2.52-.22-3.48-.65s-1.8-1.06-2.52-1.87l2.06-2.09c.46,.53,1.04,.95,1.73,1.26,.69,.31,1.42,.47,2.21,.47,.46,0,.9-.06,1.32-.19,.42-.13,.78-.32,1.1-.59,.32-.26,.57-.61,.76-1.03s.28-.93,.28-1.52v-1.22c-.38,.7-.94,1.24-1.66,1.6-.72,.36-1.5,.54-2.33,.54Zm1.32-3.05c.59,0,1.12-.16,1.58-.49,.46-.33,.82-.75,1.08-1.26v-2.64c-.26-.67-.65-1.2-1.18-1.6-.53-.39-1.09-.59-1.68-.59-.42,0-.8,.09-1.14,.28-.34,.18-.64,.43-.89,.74-.25,.31-.44,.67-.58,1.08-.14,.41-.2,.83-.2,1.26,0,.46,.08,.89,.23,1.28,.15,.39,.36,.73,.64,1.02,.27,.29,.59,.51,.95,.67,.36,.16,.76,.24,1.19,.24Z"/><path d="M274.36,62.04c.32,.11,.62,.19,.9,.24,.28,.05,.53,.07,.76,.07,.46,0,.82-.16,1.08-.48,.26-.32,.49-.9,.7-1.73l-4.8-12.6h3.96l2.93,9.31,2.52-9.31h3.6l-4.8,14.64c-.34,1.04-.94,1.88-1.8,2.53-.86,.65-1.89,.97-3.07,.97-.32,0-.64-.03-.97-.08-.33-.06-.66-.15-1-.28v-3.29Z"/></g><circle class="logo--cls-1" cx="37.5" cy="37.5" r="31.5"/></svg>